# xmcd CD database file
#
# Track frame offsets:
#	150
#	39192
#	81307
#	124374
#	158305
#	197444
#
# Disc length: 3063 seconds
#
# Revision: 1
# Processed by: cddbd v1.5.2PL0 Copyright (c) Steve Scherf et al.
# Submitted via: CDex 1.81
#
DISCID=3d0bf506
DTITLE=Sada Viveka - Shakti mantras
DYEAR=2015
DGENRE=New Age
TTITLE0=Shakti
TTITLE1=Parvati
TTITLE2=Lakshmi
TTITLE3=Durga
TTITLE4=Dhumavati
TTITLE5=Saraswati
EXTD=YEAR: 2015
EXTT0=
EXTT1=
EXTT2=
EXTT3=
EXTT4=
EXTT5=
PLAYORDER=
